<svg width="32" height="32" viewBox="0 0 32 32" fill="none" xmlns="http://www.w3.org/2000/svg">
<rect width="32" height="32" rx="8" fill="white"/>
<path d="M11.8852 20.6406H8.71837L9.93405 11.3198H13.3304C14.2786 11.3198 15.0688 11.5125 15.7009 11.8978C16.3361 12.2801 16.7844 12.8293 17.0458 13.5454C17.3102 14.2584 17.3603 15.1079 17.1962 16.094C17.0382 17.0467 16.7206 17.8629 16.2434 18.5425C15.7693 19.2221 15.1615 19.7425 14.4199 20.1035C13.6784 20.4616 12.8335 20.6406 11.8852 20.6406ZM10.9552 18.72H12.0265C12.5493 18.72 13.0112 18.6259 13.4124 18.4378C13.8166 18.2467 14.1509 17.9417 14.4154 17.523C14.6798 17.1013 14.8682 16.5476 14.9807 15.8619C15.0901 15.2065 15.0855 14.6892 14.967 14.3099C14.8515 13.9276 14.6266 13.6546 14.2923 13.4907C13.961 13.3239 13.5279 13.2404 12.993 13.2404H11.8715L10.9552 18.72Z" fill="black"/>
<path d="M26.5853 14.6968H24.3332C24.3454 14.4601 24.3226 14.2493 24.2649 14.0642C24.2071 13.8761 24.1159 13.7153 23.9913 13.5818C23.8667 13.4452 23.7117 13.3421 23.5263 13.2723C23.3409 13.2025 23.1252 13.1676 22.879 13.1676C22.4079 13.1676 21.9809 13.2844 21.598 13.518C21.215 13.7517 20.8944 14.0885 20.636 14.5284C20.3777 14.9683 20.1969 15.4963 20.0935 16.1122C19.9993 16.7069 20.0008 17.2029 20.0981 17.6004C20.1984 17.9979 20.3838 18.2967 20.6543 18.497C20.9248 18.6942 21.2682 18.7928 21.6846 18.7928C21.9551 18.7928 22.2058 18.761 22.4368 18.6972C22.6708 18.6305 22.882 18.5349 23.0704 18.4105C23.2589 18.2861 23.4215 18.1359 23.5582 17.96C23.698 17.7809 23.8059 17.5822 23.8819 17.3638H26.1522C26.0397 17.7734 25.8544 18.1814 25.596 18.588C25.3407 18.9915 25.0186 19.3572 24.6296 19.6848C24.2405 20.0125 23.7892 20.275 23.2756 20.4722C22.762 20.6694 22.1906 20.768 21.5615 20.768C20.7014 20.768 19.9598 20.5753 19.3368 20.19C18.7168 19.8047 18.2685 19.2464 17.9919 18.5152C17.7184 17.7809 17.6667 16.892 17.8369 15.8482C18.0041 14.8379 18.3338 13.9868 18.8262 13.295C19.3216 12.6033 19.9234 12.0799 20.6315 11.7249C21.3427 11.3699 22.1009 11.1924 22.9063 11.1924C23.4899 11.1924 24.0141 11.2713 24.4791 11.4291C24.9472 11.5838 25.3438 11.8114 25.669 12.1117C25.9942 12.4091 26.2358 12.7747 26.3938 13.2086C26.5549 13.6424 26.6187 14.1385 26.5853 14.6968Z" fill="black"/>
<path d="M12.184 11.3198L10.634 20.6406H8.71932C7.62086 18.5398 7.005 17.3619 5.90654 15.2611H5.84271L4.94463 20.6406H2.68802L4.23801 11.3198H6.18006L8.97005 16.6902H9.04755L9.93196 11.3198H12.184Z" fill="black"/>
<path d="M12.9976 8.09157H28.6434V23.8446H12.9976V21.4416H12.3289V24.5121H29.312V7.42407H12.3289V10.4946H12.9976V8.09157Z" fill="black"/>
</svg>
