<svg width="500" height="321" viewBox="0 0 500 321" fill="none" xmlns="http://www.w3.org/2000/svg">
<path d="M172.724 248.273H113.25L136.081 73.1825H199.864C217.672 73.1825 232.511 76.8018 244.383 84.0402C256.312 91.2217 264.731 101.538 269.64 114.989C274.605 128.383 275.547 144.342 272.465 162.865C269.497 180.762 263.532 196.094 254.571 208.861C245.668 221.628 234.252 231.403 220.326 238.185C206.399 244.911 190.532 248.273 172.724 248.273ZM155.259 212.195H175.378C185.195 212.195 193.871 210.428 201.405 206.895C208.996 203.304 215.274 197.576 220.24 189.71C225.206 181.788 228.744 171.386 230.856 158.505C232.911 146.194 232.825 136.476 230.599 129.352C228.43 122.17 224.207 117.041 217.928 113.963C211.707 110.828 203.574 109.261 193.528 109.261H172.467L155.259 212.195Z" fill="black"/>
<path d="M448.792 136.619H406.498C406.726 132.173 406.298 128.212 405.214 124.735C404.13 121.201 402.417 118.181 400.077 115.673C397.737 113.108 394.826 111.17 391.344 109.859C387.863 108.548 383.81 107.893 379.187 107.893C370.34 107.893 362.321 110.087 355.129 114.476C347.938 118.865 341.916 125.191 337.065 133.456C332.213 141.72 328.817 151.637 326.877 163.207C325.107 174.378 325.136 183.697 326.962 191.164C328.846 198.63 332.327 204.244 337.407 208.006C342.487 211.711 348.937 213.563 356.756 213.563C361.836 213.563 366.545 212.965 370.883 211.768C375.277 210.514 379.244 208.718 382.783 206.382C386.322 204.045 389.375 201.223 391.944 197.918C394.569 194.555 396.595 190.822 398.022 186.718H440.658C438.547 194.412 435.065 202.078 430.213 209.716C425.419 217.296 419.369 224.164 412.063 230.32C404.757 236.475 396.281 241.405 386.636 245.11C376.99 248.815 366.259 250.667 354.444 250.667C338.292 250.667 324.365 247.048 312.664 239.81C301.021 232.571 292.602 222.084 287.408 208.348C282.271 194.555 281.301 177.855 284.497 158.249C287.636 139.269 293.829 123.282 303.076 110.287C312.379 97.2917 323.68 87.46 336.979 80.7915C350.335 74.123 364.576 70.7887 379.701 70.7887C390.659 70.7887 400.505 72.2706 409.238 75.2344C418.028 78.1412 425.476 82.4158 431.583 88.0584C437.69 93.644 442.228 100.512 445.196 108.662C448.221 116.813 449.42 126.132 448.792 136.619Z" fill="black"/>
<path d="M178.335 73.1825L149.226 248.273H113.268C92.639 208.81 81.0731 186.684 60.4439 147.22H59.2453L42.3792 248.273H0L29.109 73.1825H65.5808L117.977 174.065H119.432L136.042 73.1825H178.335Z" fill="black"/>
<path d="M193.614 12.5391H487.443V308.461H193.614V263.32H181.057V321H500V0H181.057V57.6797H193.614V12.5391Z" fill="black"/>
</svg>
